<?xml version="1.0" encoding="UTF-8"?>
<svg id="Layer_1" data-name="Layer 1" xmlns="http://www.w3.org/2000/svg" viewBox="0 0 1080 1080">
  <defs>
    <style>
      .cls-1 {
        fill: #032b44;
      }

      .cls-2 {
        fill: #756f66;
        font-family: BankGothicBT-Medium, 'BankGothic Md BT';
        font-size: 23.91px;
        font-weight: 500;
        letter-spacing: .5em;
      }
    </style>
  </defs>
  <path class="cls-1" d="m510.1,397.39c1.93,0,3.78.06,5.55.17h87.53c1.23,0,2.12-1.2,1.73-2.37-7.35-22.32-38.32-23.03-80.7-23.03h-130.76c-7.37,0-14.35,3.4-18.23,9.67l-.74,1.26c-3.86,6.24.62,14.29,7.96,14.29h127.65Z"/>
  <path class="cls-1" d="m593.77,538.3h-35.01c-3.68,0-7.03-2.14-8.58-5.48l-18.78-40.59c-2.27-4.91-.03-10.6,4.96-12.7,42.57-17.88,65.96-38.27,70.18-61.17.3-1.63-.99-3.13-2.65-3.13h-54.63c-2.17,0-3.86,1.87-3.64,4.03.11,1.08.17,2.19.17,3.35,0,14.64-9.4,26.81-28.18,36.54-3.12,1.7-10.81,4.81-23.08,9.35-5.65,2.11-10.38,3.81-14.21,5.11-5.28,1.79-7.85,7.75-5.55,12.83l23.44,51.88c3.87,8.59,7.08,14.16,9.63,16.71,3.87,3.97,9.54,5.95,16.99,5.95h54.52c7.46,0,14.02-1.89,19.68-5.66h0c7.55-5.17,3.89-16.99-5.26-16.99Z"/>
  <path class="cls-1" d="m484.02,422.97l-33.53,134.02c-.56,2.25-2.06,3.75-3.74,3.75h-27.45c-2.74,0-4.65-3.85-3.74-7.52l33.25-134.02c.56-2.25,2.06-3.76,3.74-3.76h27.72c2.74,0,4.66,3.86,3.74,7.53Z"/>
  <text class="cls-2" transform="translate(376.6 412.5)"><tspan x="0" y="0">INNOVATE</tspan></text>
</svg>